<mxfile host="app.diagrams.net" modified="2022-10-30T00:42:44.220Z" agent="5.0 (Windows NT 10.0; Win64; x64) AppleWebKit/537.36 (KHTML, like Gecko) Chrome/107.0.0.0 Safari/537.36" etag="SsJjxYzbtpSjVY9ll4aL" version="20.5.1" type="github">
  <diagram id="C5RBs43oDa-KdzZeNtuy" name="Page-1">
    <mxGraphModel dx="782" dy="738" grid="1" gridSize="10" guides="1" tooltips="1" connect="1" arrows="1" fold="1" page="1" pageScale="1" pageWidth="827" pageHeight="1169" math="0" shadow="0">
      <root>
        <mxCell id="WIyWlLk6GJQsqaUBKTNV-0" />
        <mxCell id="WIyWlLk6GJQsqaUBKTNV-1" parent="WIyWlLk6GJQsqaUBKTNV-0" />
        <mxCell id="GkQphRmUGwTpfuJu9ETJ-1" value="End" style="rounded=1;whiteSpace=wrap;html=1;" vertex="1" parent="WIyWlLk6GJQsqaUBKTNV-1">
          <mxGeometry x="330" y="780" width="120" height="60" as="geometry" />
        </mxCell>
        <mxCell id="GkQphRmUGwTpfuJu9ETJ-18" value="" style="edgeStyle=orthogonalEdgeStyle;rounded=0;orthogonalLoop=1;jettySize=auto;html=1;" edge="1" parent="WIyWlLk6GJQsqaUBKTNV-1" source="GkQphRmUGwTpfuJu9ETJ-2" target="GkQphRmUGwTpfuJu9ETJ-6">
          <mxGeometry relative="1" as="geometry" />
        </mxCell>
        <mxCell id="GkQphRmUGwTpfuJu9ETJ-2" value="Start" style="rounded=1;whiteSpace=wrap;html=1;" vertex="1" parent="WIyWlLk6GJQsqaUBKTNV-1">
          <mxGeometry x="330" y="40" width="120" height="60" as="geometry" />
        </mxCell>
        <mxCell id="GkQphRmUGwTpfuJu9ETJ-17" value="" style="edgeStyle=orthogonalEdgeStyle;rounded=0;orthogonalLoop=1;jettySize=auto;html=1;" edge="1" parent="WIyWlLk6GJQsqaUBKTNV-1" source="GkQphRmUGwTpfuJu9ETJ-3" target="GkQphRmUGwTpfuJu9ETJ-6">
          <mxGeometry relative="1" as="geometry" />
        </mxCell>
        <mxCell id="GkQphRmUGwTpfuJu9ETJ-3" value="c" style="shape=parallelogram;perimeter=parallelogramPerimeter;whiteSpace=wrap;html=1;fixedSize=1;" vertex="1" parent="WIyWlLk6GJQsqaUBKTNV-1">
          <mxGeometry x="330" y="130" width="120" height="60" as="geometry" />
        </mxCell>
        <mxCell id="GkQphRmUGwTpfuJu9ETJ-12" value="" style="edgeStyle=orthogonalEdgeStyle;rounded=0;orthogonalLoop=1;jettySize=auto;html=1;" edge="1" parent="WIyWlLk6GJQsqaUBKTNV-1" source="GkQphRmUGwTpfuJu9ETJ-4" target="GkQphRmUGwTpfuJu9ETJ-7">
          <mxGeometry relative="1" as="geometry" />
        </mxCell>
        <mxCell id="GkQphRmUGwTpfuJu9ETJ-13" style="edgeStyle=orthogonalEdgeStyle;rounded=0;orthogonalLoop=1;jettySize=auto;html=1;" edge="1" parent="WIyWlLk6GJQsqaUBKTNV-1" source="GkQphRmUGwTpfuJu9ETJ-4" target="GkQphRmUGwTpfuJu9ETJ-8">
          <mxGeometry relative="1" as="geometry" />
        </mxCell>
        <mxCell id="GkQphRmUGwTpfuJu9ETJ-4" value="c &amp;gt; 10" style="rhombus;whiteSpace=wrap;html=1;" vertex="1" parent="WIyWlLk6GJQsqaUBKTNV-1">
          <mxGeometry x="350" y="350" width="80" height="80" as="geometry" />
        </mxCell>
        <mxCell id="GkQphRmUGwTpfuJu9ETJ-16" value="" style="edgeStyle=orthogonalEdgeStyle;rounded=0;orthogonalLoop=1;jettySize=auto;html=1;" edge="1" parent="WIyWlLk6GJQsqaUBKTNV-1" source="GkQphRmUGwTpfuJu9ETJ-6" target="GkQphRmUGwTpfuJu9ETJ-4">
          <mxGeometry relative="1" as="geometry" />
        </mxCell>
        <mxCell id="GkQphRmUGwTpfuJu9ETJ-6" value="c++" style="whiteSpace=wrap;html=1;aspect=fixed;" vertex="1" parent="WIyWlLk6GJQsqaUBKTNV-1">
          <mxGeometry x="350" y="210" width="80" height="80" as="geometry" />
        </mxCell>
        <mxCell id="GkQphRmUGwTpfuJu9ETJ-19" style="edgeStyle=orthogonalEdgeStyle;rounded=0;orthogonalLoop=1;jettySize=auto;html=1;entryX=0.5;entryY=0;entryDx=0;entryDy=0;" edge="1" parent="WIyWlLk6GJQsqaUBKTNV-1" source="GkQphRmUGwTpfuJu9ETJ-7" target="GkQphRmUGwTpfuJu9ETJ-10">
          <mxGeometry relative="1" as="geometry" />
        </mxCell>
        <mxCell id="GkQphRmUGwTpfuJu9ETJ-7" value="print &quot;g++!&quot;" style="shape=parallelogram;perimeter=parallelogramPerimeter;whiteSpace=wrap;html=1;fixedSize=1;" vertex="1" parent="WIyWlLk6GJQsqaUBKTNV-1">
          <mxGeometry x="330" y="460" width="120" height="60" as="geometry" />
        </mxCell>
        <mxCell id="GkQphRmUGwTpfuJu9ETJ-11" style="edgeStyle=orthogonalEdgeStyle;rounded=0;orthogonalLoop=1;jettySize=auto;html=1;" edge="1" parent="WIyWlLk6GJQsqaUBKTNV-1" source="GkQphRmUGwTpfuJu9ETJ-8" target="GkQphRmUGwTpfuJu9ETJ-10">
          <mxGeometry relative="1" as="geometry" />
        </mxCell>
        <mxCell id="GkQphRmUGwTpfuJu9ETJ-8" value="print &quot;gmm!&quot;" style="shape=parallelogram;perimeter=parallelogramPerimeter;whiteSpace=wrap;html=1;fixedSize=1;" vertex="1" parent="WIyWlLk6GJQsqaUBKTNV-1">
          <mxGeometry x="500" y="525" width="120" height="60" as="geometry" />
        </mxCell>
        <mxCell id="GkQphRmUGwTpfuJu9ETJ-20" style="edgeStyle=orthogonalEdgeStyle;rounded=0;orthogonalLoop=1;jettySize=auto;html=1;entryX=0.5;entryY=0;entryDx=0;entryDy=0;" edge="1" parent="WIyWlLk6GJQsqaUBKTNV-1" source="GkQphRmUGwTpfuJu9ETJ-10" target="GkQphRmUGwTpfuJu9ETJ-1">
          <mxGeometry relative="1" as="geometry" />
        </mxCell>
        <mxCell id="GkQphRmUGwTpfuJu9ETJ-10" value="print &quot;gmm!&quot;" style="shape=parallelogram;perimeter=parallelogramPerimeter;whiteSpace=wrap;html=1;fixedSize=1;" vertex="1" parent="WIyWlLk6GJQsqaUBKTNV-1">
          <mxGeometry x="330" y="600" width="120" height="60" as="geometry" />
        </mxCell>
        <mxCell id="GkQphRmUGwTpfuJu9ETJ-14" value="Yes" style="text;html=1;strokeColor=none;fillColor=none;align=center;verticalAlign=middle;whiteSpace=wrap;rounded=0;" vertex="1" parent="WIyWlLk6GJQsqaUBKTNV-1">
          <mxGeometry x="330" y="430" width="60" height="30" as="geometry" />
        </mxCell>
        <mxCell id="GkQphRmUGwTpfuJu9ETJ-15" value="No" style="text;html=1;strokeColor=none;fillColor=none;align=center;verticalAlign=middle;whiteSpace=wrap;rounded=0;" vertex="1" parent="WIyWlLk6GJQsqaUBKTNV-1">
          <mxGeometry x="490" y="360" width="60" height="30" as="geometry" />
        </mxCell>
      </root>
    </mxGraphModel>
  </diagram>
</mxfile>
